<svg width="386" height="169" viewBox="0 0 386 169" fill="none" xmlns="http://www.w3.org/2000/svg">
<rect width="386" height="169" fill="white"/>
<path d="M99.8859 34.3107L86.1939 58.0259L72.5019 34.3107H26.9058L86.1939 137L145.482 34.3107H99.8859Z" fill="#4DBA87"/>
<path d="M99.8859 34.3107L86.1939 58.0259L72.5019 34.3107H50.621L86.1939 95.9241L121.767 34.3107H99.8859Z" fill="#435466"/>
<path d="M269.162 94.7929C269.162 94.8438 269.111 94.8968 269.007 95.0007L254.899 101.008H254.849C254.849 101.008 254.796 101.008 254.743 100.955L243.386 89.6572C243.333 89.6063 243.282 89.5024 243.333 89.4535C243.386 89.4026 243.438 89.3496 243.489 89.3496H243.54L269.007 94.6401C269.111 94.6401 269.162 94.691 269.162 94.7929ZM270.51 91.2503C270.459 91.2503 270.459 91.2503 270.51 91.2503L241.155 85.0879C241.051 85.0879 241 85.0349 241 84.984C241 84.9331 241 84.8821 241.051 84.8312L257.442 68.6012C257.442 68.5503 257.493 68.5503 257.544 68.5503C257.648 68.6012 257.648 68.6012 257.701 68.6521C257.701 68.7051 271.755 89.042 271.912 89.2457C271.963 89.2987 271.963 89.4026 271.912 89.4535C271.445 89.9669 270.977 90.5312 270.667 91.1484C270.614 91.1973 270.561 91.2503 270.51 91.2503ZM276.632 49.9083C276.579 49.8553 276.526 49.8553 276.579 49.7535C276.579 49.7025 276.579 49.6516 276.632 49.5986L301.318 25.0509C301.318 25 301.371 25 301.422 25C301.473 25 301.473 25 301.526 25.0509L312.158 35.5789C312.209 35.6299 312.209 35.7338 312.158 35.7847L299.346 55.6612C299.295 55.7101 299.244 55.7631 299.191 55.7631H299.14C298.466 55.5573 297.792 55.4534 297.117 55.4534C295.718 55.4534 294.316 55.9668 293.227 56.8407C293.176 56.8937 293.176 56.8937 293.125 56.8937H293.072C292.397 56.584 276.632 49.9083 276.632 49.9083ZM275.126 87.4999L260.398 65.9814C260.345 65.9325 260.345 65.8286 260.398 65.7777L273.623 52.6299C273.623 52.579 273.674 52.579 273.727 52.579H273.778C273.778 52.6299 289.389 59.2038 291.153 59.9739C291.204 60.0248 291.257 60.0757 291.257 60.1796C291.153 60.642 291.102 61.1024 291.102 61.5649C291.102 63.1579 291.723 64.6471 292.813 65.7777C292.864 65.8286 292.864 65.9325 292.813 65.9814L278.913 87.5528C278.861 87.6038 278.81 87.6547 278.757 87.6547H278.706C278.135 87.4999 277.512 87.398 276.942 87.398C276.422 87.398 275.854 87.4999 275.334 87.6038H275.281C275.23 87.6038 275.179 87.5528 275.126 87.4999ZM279.95 100.904L307.438 140.861C307.491 140.912 307.491 141.014 307.438 141.067L301.422 147.074C301.422 147.125 301.371 147.125 301.318 147.125C301.318 147.125 301.267 147.125 301.214 147.074L266.88 113.025C266.827 112.974 266.827 112.871 266.88 112.82L266.931 112.769L274.401 101.161C274.452 101.112 274.505 101.059 274.556 101.059H274.607C275.385 101.316 276.112 101.42 276.889 101.42C277.875 101.42 278.81 101.212 279.743 100.802H279.794C279.846 100.802 279.899 100.855 279.95 100.904ZM271.445 98.9039C271.496 98.9528 271.496 99.0037 271.496 99.0037L264.391 110.045C264.338 110.098 264.287 110.149 264.236 110.149C264.236 110.149 264.183 110.149 264.132 110.098L257.855 103.885C257.804 103.832 257.804 103.781 257.804 103.73C257.804 103.677 257.855 103.628 257.908 103.628L270.771 98.1318H270.822C270.873 98.1318 270.926 98.1827 270.977 98.2336C271.134 98.4903 271.288 98.6961 271.445 98.9039ZM283.943 93.921C283.943 93.5095 283.839 93.1489 283.788 92.7394C283.788 92.6355 283.788 92.5846 283.89 92.5357L320.769 76.7681H320.82C320.82 76.7681 320.871 76.7681 320.924 76.8191C321.182 77.0758 321.39 77.2285 321.598 77.3834C321.702 77.3834 321.702 77.4852 321.702 77.5382L318.485 97.3088C318.485 97.4127 318.434 97.4656 318.33 97.4656C316.566 97.5654 315.01 98.5942 314.13 100.134C314.077 100.185 314.024 100.238 313.973 100.238H313.922L284.1 94.0738C283.996 94.0738 283.943 94.0228 283.943 93.921ZM316.67 107.531C316.774 107.58 316.774 107.684 316.67 107.684L312.003 136.442C312.003 136.495 311.95 136.495 311.95 136.546L310.29 138.19C310.29 138.241 310.239 138.241 310.188 138.241C310.135 138.241 310.135 138.241 310.084 138.19L282.698 98.5433C282.648 98.4903 282.648 98.3885 282.698 98.3375C282.855 98.1318 282.957 97.926 283.114 97.6693C283.165 97.6184 283.218 97.5654 283.269 97.5654H283.322L313.402 103.781C313.506 103.832 313.557 103.885 313.557 103.934C313.973 105.529 315.114 106.914 316.67 107.531ZM339.335 109.175C339.386 109.175 339.439 109.224 339.439 109.379C339.439 109.432 339.439 109.483 339.386 109.532L316.878 131.873C316.878 131.926 316.825 131.926 316.774 131.926H316.67C316.617 131.873 316.566 131.822 316.566 131.718L320.457 107.788C320.457 107.737 320.508 107.633 320.559 107.633C321.494 107.272 322.272 106.657 322.894 105.885C322.945 105.885 322.997 105.836 323.05 105.836H323.101L339.335 109.175ZM319.21 71.8892C319.263 71.9401 319.316 71.991 319.316 72.0929C319.263 72.3496 319.21 72.6592 319.21 72.9668V73.2235V73.4292C319.21 73.4802 319.159 73.5311 319.109 73.582L282.44 89.2457H282.387C282.336 89.2457 282.283 89.2457 282.232 89.1968C282.181 89.1459 282.181 89.042 282.232 88.989L295.977 67.6763C296.028 67.6254 296.081 67.5745 296.131 67.5745H296.184C296.547 67.6254 296.859 67.6763 297.168 67.6763C299.244 67.6763 301.163 66.6496 302.304 64.9038C302.355 64.8528 302.408 64.8019 302.459 64.8019H302.512L319.21 71.8892ZM359.666 89.042C359.717 89.0929 359.717 89.1459 359.717 89.1968C359.717 89.2457 359.717 89.2987 359.666 89.3496L342.758 106.144C342.758 106.195 342.707 106.195 342.654 106.195H342.603L324.138 102.343C324.034 102.343 323.983 102.292 323.983 102.19C323.827 100.752 323.152 99.4681 322.011 98.5942C321.961 98.5433 321.961 98.4903 321.961 98.4394L325.228 78.3592C325.228 78.2573 325.332 78.2043 325.383 78.2043C326.835 78.0006 328.08 77.2815 328.911 76.1509C328.962 76.1 329.013 76.1 329.066 76.1H329.117L359.666 89.042ZM362.83 85.9598C362.934 86.0107 362.934 86.1655 362.83 86.1655L362.726 86.2674C362.726 86.3204 362.673 86.3204 362.622 86.3204H362.571L330.726 72.812C330.673 72.812 330.62 72.7101 330.62 72.6592C330.62 72.6083 330.673 72.5553 330.726 72.5044L343.64 67.0102H343.691C343.691 67.0102 343.744 67.0102 343.795 67.0611L362.83 85.9598ZM302.251 58.175C302.2 58.1241 302.2 58.0223 302.251 57.9184L314.751 38.5063C314.751 38.4554 314.802 38.4045 314.855 38.4045C314.908 38.4045 314.908 38.4045 314.959 38.4554L326.057 49.4968C326.11 49.5497 326.11 49.5986 326.11 49.6516L323.205 67.6763C323.205 67.7802 323.152 67.8312 323.101 67.8312C322.427 68.0369 321.804 68.3445 321.286 68.756C321.286 68.807 321.235 68.807 321.182 68.807H321.131L303.392 61.2573C303.341 61.2063 303.288 61.1554 303.288 61.1024C303.186 60.0757 302.822 59.049 302.251 58.175ZM326.99 68.1897C326.939 68.1897 326.886 68.0878 326.835 68.0369L329.274 53.0923C329.274 52.9885 329.325 52.9375 329.378 52.9375H329.429C329.429 52.9375 329.48 52.9375 329.533 52.9885L340.684 64.0298C340.735 64.0828 340.735 64.1337 340.735 64.1846C340.735 64.2356 340.684 64.2865 340.633 64.3395L328.704 69.4222H328.651C328.6 69.4222 328.6 69.4222 328.547 69.3712C328.133 68.9088 327.614 68.4993 326.99 68.1897Z" fill="#435466"/>
<path d="M195.283 83.3564H207.574V88.6543H195.283V102.58H189.652V88.6543H177.361V83.3564H189.652V70.4902H195.283V83.3564Z" fill="#435466"/>
</svg>
